<?xml version="1.0" encoding="UTF-8"?><svg id="a" xmlns="http://www.w3.org/2000/svg" viewBox="0 0 237.44 265.29"><defs><style>.b{fill:#00d8c7;}.c{fill:#fff;}</style></defs><path class="c" d="M235.2,236.47L122.29,0,31.61,183.18s44.05,.05,44.05,.05l46.85-92.55,76.37,159.61c3.25,7.6,8.17,14.95,19.3,14.95,7.03,0,13.53-4.01,16.81-9.84,3.07-5.44,3.39-12.26,.22-18.93Z"/><path class="b" d="M22.18,221.62h-.17c-12.13-.1-22.01,9.71-22.01,21.83H0c0,12.06,9.78,21.84,21.83,21.84h.17c12.06,0,21.83-9.78,21.83-21.83h0c0-11.99-9.67-21.74-21.66-21.83Z"/></svg>