<svg width="179" height="56" viewBox="0 0 179 56" fill="none" xmlns="http://www.w3.org/2000/svg">
<path fill-rule="evenodd" clip-rule="evenodd" d="M178.385 56H0.615234C16.482 22.8759 50.3195 0 89.5 0C128.68 0 162.518 22.8759 178.385 56Z" fill="url(#paint0_linear_157_304)"/>
<path d="M65.4984 40.602L54.2173 17L45.158 35.2834L49.5587 35.2887L54.239 26.0511L61.8683 41.9812C62.1934 42.7393 62.6845 43.4737 63.7961 43.4737C64.4982 43.4737 65.1476 43.0732 65.476 42.4916C65.7825 41.9489 65.8148 41.2685 65.4977 40.6026L65.4984 40.602Z" fill="white"/>
<path d="M44.2158 39.1195H44.1986C42.9868 39.1096 41.9999 40.0883 41.9999 41.2983C41.9999 42.5023 42.9763 43.4777 44.1815 43.4777H44.1986C45.4031 43.4777 46.3802 42.5023 46.3802 41.2983C46.3802 40.0943 45.4143 39.1287 44.2164 39.1188L44.2158 39.1195Z" fill="#00D8C7"/>
<defs>
<linearGradient id="paint0_linear_157_304" x1="178.503" y1="56" x2="126.7" y2="136.906" gradientUnits="userSpaceOnUse">
<stop offset="0.102564" stop-color="#00D8C7"/>
<stop offset="1" stop-color="#036DDC"/>
</linearGradient>
</defs>
</svg>
