<svg width="179" height="56" viewBox="0 0 179 56" fill="none" xmlns="http://www.w3.org/2000/svg">
<path fill-rule="evenodd" clip-rule="evenodd" d="M178.385 56H0.615234C16.482 22.8759 50.3195 0 89.5 0C128.68 0 162.518 22.8759 178.385 56Z" fill="url(#paint0_linear_157_502)"/>
<path d="M70.4984 40.602L59.2173 17L50.158 35.2834L54.5587 35.2887L59.239 26.0511L66.8683 41.9812C67.1934 42.7393 67.6845 43.4737 68.7961 43.4737C69.4982 43.4737 70.1476 43.0732 70.476 42.4916C70.7825 41.9489 70.8148 41.2685 70.4977 40.6026L70.4984 40.602Z" fill="white"/>
<path d="M49.2158 39.1195H49.1986C47.9868 39.1096 46.9999 40.0883 46.9999 41.2983C46.9999 42.5023 47.9763 43.4777 49.1815 43.4777H49.1986C50.4031 43.4777 51.3802 42.5023 51.3802 41.2983C51.3802 40.0943 50.4143 39.1287 49.2164 39.1188L49.2158 39.1195Z" fill="#00D8C7"/>
<defs>
<linearGradient id="paint0_linear_157_502" x1="0.615236" y1="1.99111" x2="94.0597" y2="120.659" gradientUnits="userSpaceOnUse">
<stop offset="0.319832" stop-color="#031798"/>
<stop offset="0.925568" stop-color="#0543E2"/>
</linearGradient>
</defs>
</svg>
