<svg width="24" height="22" viewBox="0 0 24 22" fill="none" xmlns="http://www.w3.org/2000/svg">
<path d="M15.1568 18.1651L9.81076 21.3261C9.45546 21.5365 9.02173 21.257 9.02173 20.8171V14.5061C9.02173 14.0252 9.26351 13.5824 9.65295 13.3529L14.999 10.1919C15.3543 9.9815 15.788 10.261 15.788 10.7009V17.0119C15.788 17.4928 15.5462 17.9356 15.1568 18.1651Z" fill="#404044"/>
<path d="M23.3687 13.3073L18.0227 16.4683C17.6674 16.6787 17.2336 16.3991 17.2336 15.9593V9.64828C17.2336 9.16737 17.4754 8.72452 17.8649 8.49509L23.2109 5.33406C23.5662 5.12366 23.9999 5.4032 23.9999 5.84303V12.1541C23.9999 12.635 23.7581 13.0778 23.3687 13.3073Z" fill="#404044"/>
<path d="M6.53511 21.3174L0.455264 18.0537C0.174863 17.9032 0 17.6152 0 17.3019V10.7694C0 10.2763 0.541144 9.96412 0.982957 10.2016L7.0628 13.4643C7.3432 13.6148 7.51807 13.9028 7.51807 14.2161V20.7486C7.51807 21.2417 6.97692 21.5539 6.53511 21.3164V21.3174Z" fill="#404044"/>
<path d="M16.0688 7.41127L10.096 4.29891C9.58145 4.00329 9.59075 3.28551 10.1135 3.00374L16.0626 0.0970228C16.3044 -0.0334828 16.5999 -0.0324941 16.8396 0.100978L22.8569 3.11645C23.3787 3.40514 23.3787 4.12589 22.8569 4.41458L16.8644 7.4172C16.6175 7.55364 16.3137 7.55166 16.0688 7.41127Z" fill="#404044"/>
<path d="M7.85681 12.2691L1.88394 9.15673C1.36941 8.86112 1.37871 8.14334 1.90151 7.86156L7.85061 4.95485C8.09238 4.82434 8.38787 4.82533 8.62757 4.9588L14.6449 7.97427C15.1666 8.26297 15.1666 8.98372 14.6449 9.27241L8.65236 12.275C8.40543 12.4115 8.10167 12.4095 7.85681 12.2691Z" fill="#404044"/>
</svg>
