<svg width="22" height="23" viewBox="0 0 22 23" fill="none" xmlns="http://www.w3.org/2000/svg">
<path d="M22 21.7723C22 22.0979 21.8712 22.4102 21.642 22.6404C21.4128 22.8706 21.1019 23 20.7778 23H1.22222C0.898069 23 0.587192 22.8706 0.357981 22.6404C0.12877 22.4102 2.94202e-07 22.0979 2.94202e-07 21.7723V8.86878C-0.000128924 8.68169 0.0423099 8.49704 0.124075 8.32894C0.20584 8.16084 0.324769 8.01374 0.471778 7.89887L10.2496 0.258676C10.4641 0.0910236 10.7282 0 11 0C11.2718 0 11.5359 0.0910236 11.7504 0.258676L21.5282 7.89887C21.6752 8.01374 21.7942 8.16084 21.8759 8.32894C21.9577 8.49704 22.0001 8.68169 22 8.86878V21.7723ZM19.5556 20.5445V9.46791L11 2.78413L2.44444 9.46791V20.5445H19.5556Z" fill="white"/>
</svg>
