<svg width="25" height="24" viewBox="0 0 25 24" fill="none" xmlns="http://www.w3.org/2000/svg">
<path d="M23.6972 10.8942L17.1698 14.4875C16.6943 14.7494 16.399 15.2517 16.399 15.7984V22.9724C16.399 23.4724 16.9275 23.789 17.3624 23.551L23.8898 19.9577C24.3653 19.6958 24.6606 19.1935 24.6606 18.6468V11.4727C24.6606 10.9727 24.1321 10.6561 23.6972 10.8942Z" fill="#404044"/>
<path d="M6.44727 15.8838V18.9611C6.44727 19.3142 6.63769 19.6388 6.94305 19.8085L13.564 23.4861C14.0451 23.7537 14.6344 23.4018 14.6344 22.846V15.4829C14.6344 15.1298 14.444 14.8052 14.1386 14.6355L12.5251 13.7392C12.2749 13.6002 11.9685 13.631 11.7431 13.8087C10.3842 14.8792 8.67602 15.5182 6.8191 15.5182C6.81797 15.5182 6.81685 15.5182 6.81572 15.5182C6.61403 15.5182 6.44952 15.6799 6.44952 15.8838H6.44727Z" fill="#404044"/>
<path d="M22.5377 7.94316L15.9753 4.46945C15.7139 4.31683 15.3905 4.31455 15.128 4.46489C14.7269 4.67217 14.5263 5.13002 14.6288 5.5742C14.7652 6.16416 14.8373 6.77918 14.8373 7.41128C14.8373 8.93516 14.4204 10.3611 13.697 11.5797C13.5708 11.7927 13.6407 12.0683 13.8559 12.1868L15.1348 12.8906C15.4007 13.0524 15.7331 13.0546 16.0024 12.8975L22.5377 9.43856C23.1067 9.106 23.1067 8.27572 22.5377 7.94316Z" fill="#404044"/>
<path d="M6.4936 0.368225C2.90708 0.368225 0 3.30664 0 6.93183C0 10.557 2.90708 13.4954 6.4936 13.4954C10.0801 13.4954 12.9872 10.557 12.9872 6.93183C12.9872 3.30664 10.0801 0.368225 6.4936 0.368225ZM8.92066 6.76897L7.01191 7.83158C6.90149 7.89308 6.7798 7.92383 6.6581 7.92383C6.52965 7.92383 6.40007 7.88967 6.28514 7.82133C6.06204 7.68808 5.9257 7.44549 5.9257 7.18353V2.48662C5.9257 2.07775 6.25359 1.74632 6.6581 1.74632C7.06262 1.74632 7.39051 2.07775 7.39051 2.48662V5.93072L8.21305 5.47287C8.56686 5.27584 9.01306 5.40568 9.20799 5.76444C9.40292 6.12206 9.27447 6.57307 8.91954 6.7701L8.92066 6.76897Z" fill="#404044"/>
</svg>
