<svg width="27" height="18" viewBox="0 0 27 18" fill="none" xmlns="http://www.w3.org/2000/svg">
<path d="M6.67255 16.1239C6.38001 15.9833 6.2124 15.6687 6.25668 15.3445C6.48438 13.6754 7.67191 8.60446 13.6823 8.60446C19.6927 8.60446 20.8897 13.5748 21.1396 15.2694C21.1886 15.6048 21.0083 15.9322 20.7 16.0648C19.7006 16.4912 17.2228 17.3473 13.4388 17.3473C9.65482 17.3473 7.55648 16.5455 6.67255 16.1223V16.1239Z" fill="white"/>
<path d="M20.4022 9.60672C21.0853 10.3111 22.3946 11.9226 22.7567 14.2129C22.8026 14.5052 23.1109 14.6713 23.3782 14.5515C24.2131 14.1746 25.8007 13.4016 26.7431 12.5902C26.9945 12.373 27.072 12.0136 26.9281 11.7134C26.4569 10.7247 25.116 8.59412 22.3393 8.59412C21.4996 8.59412 20.9288 8.72988 20.5588 8.87363C20.2615 8.99022 20.1793 9.37673 20.4022 9.60672Z" fill="white"/>
<path d="M6.57557 9.63867C5.88613 10.367 4.6733 11.9146 4.30486 14.0836C4.24794 14.4206 3.89373 14.6138 3.58539 14.4733C2.68881 14.0644 1.0601 13.2594 0.169843 12.4305C0.00539082 12.2772 -0.0467911 12.0376 0.0449225 11.8316C0.44024 10.9372 1.76851 8.5526 4.70809 8.5526C5.46552 8.5526 6.00315 8.66281 6.37316 8.79058C6.74318 8.91835 6.83331 9.36716 6.57557 9.63867Z" fill="white"/>
<path d="M5.15557 7.54639C6.35637 7.54639 7.32981 6.56317 7.32981 5.3503C7.32981 4.13743 6.35637 3.15421 5.15557 3.15421C3.95477 3.15421 2.98132 4.13743 2.98132 5.3503C2.98132 6.56317 3.95477 7.54639 5.15557 7.54639Z" fill="white"/>
<path d="M22.2159 7.54639C23.4167 7.54639 24.3901 6.56317 24.3901 5.3503C24.3901 4.13743 23.4167 3.15421 22.2159 3.15421C21.0151 3.15421 20.0416 4.13743 20.0416 5.3503C20.0416 6.56317 21.0151 7.54639 22.2159 7.54639Z" fill="white"/>
<path d="M13.7219 7.61261C15.6258 7.61261 17.1691 6.05375 17.1691 4.1308C17.1691 2.20785 15.6258 0.648994 13.7219 0.648994C11.8181 0.648994 10.2748 2.20785 10.2748 4.1308C10.2748 6.05375 11.8181 7.61261 13.7219 7.61261Z" fill="white"/>
</svg>
