<svg width="15" height="16" viewBox="0 0 15 16" fill="none" xmlns="http://www.w3.org/2000/svg">
<path d="M7.5 0.5C3.35763 0.5 0 3.85763 0 8C0 12.1424 3.35763 15.5 7.5 15.5C11.6424 15.5 15 12.1424 15 8C15 3.85763 11.6424 0.5 7.5 0.5ZM10.3032 7.8139L8.09865 9.02811C7.97111 9.09839 7.83056 9.13352 7.69 9.13352C7.54164 9.13352 7.39198 9.09448 7.25924 9.0164C7.00156 8.86413 6.84409 8.58693 6.84409 8.28761V2.92061C6.84409 2.45341 7.2228 2.0747 7.69 2.0747C8.15721 2.0747 8.53592 2.45341 8.53592 2.92061V6.85606L9.48594 6.3329C9.89459 6.10776 10.4099 6.25612 10.6351 6.66606C10.8602 7.0747 10.7119 7.59006 10.3019 7.8152L10.3032 7.8139Z" fill="#404044"/>
</svg>
